<?xml version="1.0" encoding="utf-8"?>
<!-- Generator: Adobe Illustrator 26.4.1, SVG Export Plug-In . SVG Version: 6.00 Build 0)  -->
<svg version="1.1" id="Layer_1" xmlns="http://www.w3.org/2000/svg" xmlns:xlink="http://www.w3.org/1999/xlink" x="0px" y="0px"
	 viewBox="0 0 222.9 50.9" style="enable-background:new 0 0 222.9 50.9;" xml:space="preserve">
<style type="text/css">
	.st0{fill:#FFFFFF;}
</style>
<g id="Group_1" transform="translate(-2.471 -2.429)">
	<path id="Path_1" class="st0" d="M67,16.8h5.6v22.8H67V16.8z M74.9,30.9c0-5.6,3.5-9,8.8-9s8.8,3.4,8.8,9s-3.4,9-8.8,9
		C78.3,39.9,74.9,36.7,74.9,30.9z M86.8,30.9c0-3.1-1.2-4.9-3.1-4.9c-1.9,0-3.1,1.9-3.1,4.9s1.2,4.9,3.1,4.9
		C85.6,35.8,86.8,34.1,86.8,30.9L86.8,30.9z M94.6,40.6h5.4c0.5,1.2,1.8,1.9,3,1.7c2.1,0,3.3-1.2,3.3-2.9v-3.2h-0.1
		c-0.9,2-2.9,3.2-5.1,3.1c-4.1,0-6.8-3.1-6.8-8.5s2.6-8.8,6.9-8.8c2.2-0.1,4.3,1.2,5.2,3.3l0,0v-3.1h5.6v17.1c0,4.1-3.6,6.7-9,6.7
		C98,46,94.9,43.8,94.6,40.6L94.6,40.6z M106.3,30.9c0-2.7-1.3-4.5-3.2-4.5s-3.2,1.7-3.2,4.5s1.2,4.3,3.2,4.3S106.3,33.7,106.3,30.9
		L106.3,30.9z M114.1,30.9c0-5.6,3.5-9,8.8-9s8.8,3.4,8.8,9s-3.4,9-8.8,9C117.4,39.9,114.1,36.7,114.1,30.9L114.1,30.9z M126,30.9
		c0-3.1-1.2-4.9-3.1-4.9s-3,1.9-3,5s1.2,4.9,3.1,4.9S126,34.1,126,30.9L126,30.9z M133.8,18.2c0-1.6,1.2-2.9,2.8-2.9
		s2.9,1.2,2.9,2.8c0,1.6-1.2,2.9-2.8,2.9c0,0,0,0,0,0c-1.5,0.1-2.8-1-2.9-2.5C133.8,18.4,133.8,18.3,133.8,18.2L133.8,18.2z
		 M133.8,22.3h5.6v17.2h-5.6V22.3z M159.8,30.9c0,5.6-2.5,8.8-6.8,8.8c-2.2,0.1-4.3-1.1-5.3-3.2h-0.1v8.5h-5.6V22.3h5.6v3.1h0.1
		c0.9-2.1,3-3.4,5.2-3.3C157.3,22.1,159.9,25.3,159.8,30.9L159.8,30.9z M154.2,30.9c0-2.7-1.3-4.5-3.2-4.5c-2,0-3.2,1.8-3.2,4.5
		c0,2.7,1.3,4.5,3.2,4.5C153,35.4,154.2,33.7,154.2,30.9L154.2,30.9z M169.5,21.9c4.7,0,7.5,2.2,7.6,5.8H172c0-1.2-1-2-2.6-2
		s-2.3,0.6-2.3,1.5s0.6,1.2,1.9,1.4l3.6,0.7c3.4,0.7,4.9,2.1,4.9,4.7c0,3.6-3.2,5.9-8,5.9s-7.9-2.3-8.2-5.8h5.4c0.2,1.3,1.2,2,2.8,2
		s2.4-0.5,2.4-1.4c0-0.9-0.5-1.1-1.9-1.4l-3.2-0.7c-3.4-0.7-5.1-2.5-5.1-5.1C161.8,24.1,164.8,22,169.5,21.9L169.5,21.9z
		 M196.4,39.5h-5.4v-3.2h-0.1c-0.6,2.2-2.7,3.7-5,3.6c-3.3,0.2-6.1-2.3-6.3-5.6c0-0.3,0-0.6,0-0.8V22.3h5.6v9.8c0,2,1.1,3.1,2.8,3.1
		c1.6,0,2.9-1.3,2.9-2.9c0-0.1,0-0.3,0-0.4v-9.7h5.6L196.4,39.5z M199.1,22.3h5.4v3.3h0.1c0.6-2.2,2.6-3.7,4.9-3.6
		c2.3-0.2,4.4,1.4,4.8,3.8h0.1c0.7-2.3,2.9-3.9,5.3-3.8c3-0.1,5.5,2.3,5.6,5.3c0,0.2,0,0.4,0,0.6v11.7h-5.6V29.3
		c0-1.9-0.8-2.7-2.4-2.7c-1.4,0-2.5,1.1-2.5,2.4c0,0.1,0,0.2,0,0.3v10.2h-5.3V29.2c0-1.7-0.8-2.7-2.4-2.7c-1.4,0-2.5,1.1-2.5,2.5
		c0,0.1,0,0.2,0,0.3v10.1H199L199.1,22.3z"/>
	<path id="Path_2" class="st0" d="M51.3,17.8c-1-2.2-2.2-4.2-3.8-6C38.7,0.9,22.7-0.7,11.8,8.2S-0.7,33,8.2,43.9
		c1.3,1.5,2.7,2.9,4.3,4.1c1.8,1.4,3.9,2.6,6,3.4c3,1.2,6.3,1.9,9.5,1.9c14,0,25.4-11.4,25.4-25.4C53.4,24.4,52.7,21,51.3,17.8
		L51.3,17.8z M28,7.6c2.9,0,5.8,0.6,8.5,1.9l0,0c-0.6,0.3-1.3,0.5-2,0.6c-4.7,0.7-8.4,4.4-9.1,9.1c-0.3,2.7-2.4,4.7-5.1,5
		c-4.7,0.7-8.4,4.4-9.1,9.1c-0.1,1.2-0.6,2.4-1.5,3.3l0,0c-4.8-10.1-0.5-22.2,9.6-27C22,8.2,25,7.6,28,7.6L28,7.6z M12.5,41
		c0.2-0.2,0.4-0.4,0.7-0.6c1.7-1.6,2.7-3.8,3-6.1c0.1-1.3,0.7-2.5,1.6-3.4c0.9-0.9,2.1-1.5,3.4-1.6c4.7-0.7,8.4-4.4,9.1-9.1
		c0.1-1.4,0.7-2.6,1.6-3.6c0.9-0.9,2.1-1.5,3.4-1.6c2.1-0.3,4.1-1.2,5.6-2.7c1.8,1.5,3.3,3.2,4.4,5.2c-0.1,0.1-0.2,0.2-0.2,0.3
		c-0.9,0.9-2.1,1.5-3.4,1.7c-4.7,0.7-8.4,4.4-9.1,9.1c-0.3,2.7-2.4,4.8-5,5c-4.7,0.7-8.5,4.4-9.2,9.1c-0.1,0.9-0.4,1.8-0.9,2.6
		C15.6,44.2,13.9,42.7,12.5,41L12.5,41z M28,48.3c-1.9,0-3.8-0.3-5.6-0.8c0.6-1.2,1-2.4,1.2-3.8c0.3-2.7,2.4-4.8,5-5
		c4.7-0.7,8.4-4.4,9.1-9.1c0.3-2.7,2.4-4.8,5-5c1.7-0.2,3.4-0.9,4.8-1.9c2.9,10.8-3.6,21.9-14.4,24.8C31.4,47.9,29.7,48.2,28,48.3
		L28,48.3z"/>
</g>
</svg>
