<svg xmlns="http://www.w3.org/2000/svg" width="222.894" height="50.895" viewBox="0 0 222.894 50.895">
  <g id="Group_1" data-name="Group 1" transform="translate(-2.471 -2.429)">
    <path id="Path_1" data-name="Path 1" d="M36.87,10.789H42.5V33.551H36.87Zm7.863,14.168c0-5.63,3.453-8.989,8.782-8.989S62.3,19.327,62.3,24.957s-3.378,9.008-8.782,9.008S44.733,30.68,44.733,24.957Zm11.916,0c0-3.1-1.22-4.917-3.134-4.917S50.4,21.917,50.4,24.957s1.182,4.879,3.115,4.879,3.134-1.726,3.134-4.86Zm7.769,9.7h5.4a2.909,2.909,0,0,0,3.04,1.689c2.139,0,3.265-1.163,3.265-2.852V30.343h-.113a5.329,5.329,0,0,1-5.123,3.078c-4.11,0-6.831-3.134-6.831-8.52s2.59-8.782,6.906-8.782a5.386,5.386,0,0,1,5.179,3.3h0V16.287h5.63V33.364c0,4.11-3.622,6.662-8.97,6.662-4.973,0-8.069-2.233-8.388-5.348Zm11.729-9.721c0-2.74-1.257-4.466-3.246-4.466s-3.209,1.708-3.209,4.466,1.2,4.316,3.209,4.316,3.246-1.52,3.246-4.3Zm7.75,0c0-5.63,3.453-8.989,8.782-8.989s8.8,3.359,8.8,8.989-3.378,9.008-8.8,9.008S83.9,30.68,83.9,24.957Zm11.916,0c0-3.1-1.22-4.917-3.134-4.917s-3.021,1.9-3.021,4.954,1.182,4.879,3.1,4.879,3.059-1.745,3.059-4.879ZM103.62,12.2a2.871,2.871,0,1,1,2.927,2.8,2.74,2.74,0,0,1-2.927-2.759Zm0,4.128h5.63V33.551h-5.63Zm26.066,8.614c0,5.63-2.5,8.839-6.774,8.839a5.367,5.367,0,0,1-5.254-3.19h-.113v8.482h-5.63V16.287h5.63v3.078h.113a5.386,5.386,0,0,1,5.217-3.322c4.316.075,6.887,3.3,6.887,8.933Zm-5.63,0c0-2.74-1.257-4.485-3.228-4.485s-3.228,1.764-3.247,4.485,1.276,4.466,3.247,4.466,3.228-1.708,3.228-4.429ZM139.35,15.93c4.673,0,7.506,2.214,7.638,5.761h-5.123c0-1.22-1.013-1.989-2.571-1.989s-2.252.6-2.252,1.483.619,1.163,1.877,1.426l3.6.732c3.434.732,4.9,2.121,4.9,4.729,0,3.566-3.246,5.855-8.032,5.855s-7.919-2.289-8.163-5.8h5.423c.169,1.276,1.182,2.027,2.834,2.027s2.4-.544,2.4-1.445-.525-1.088-1.877-1.37l-3.246-.694c-3.359-.694-5.123-2.477-5.123-5.1.038-3.378,3.059-5.573,7.713-5.573ZM166.2,33.514h-5.423V30.3h-.113a4.9,4.9,0,0,1-4.992,3.584,5.986,5.986,0,0,1-6.305-6.474V16.287H155V26.12c0,2.045,1.051,3.134,2.8,3.134a2.872,2.872,0,0,0,2.852-3.246V16.287h5.63Zm2.721-17.227h5.442v3.322h.113a4.992,4.992,0,0,1,4.9-3.641,4.484,4.484,0,0,1,4.785,3.753h.113a5.294,5.294,0,0,1,5.292-3.753,5.46,5.46,0,0,1,5.63,5.855V33.551h-5.63V23.324c0-1.877-.844-2.74-2.421-2.74a2.457,2.457,0,0,0-2.458,2.777v10.19H179.34v-10.3c0-1.726-.844-2.665-2.383-2.665a2.513,2.513,0,0,0-2.5,2.815V33.551h-5.63Z" transform="translate(30.153 5.98)" fill="#394149"/>
    <path id="Path_2" data-name="Path 2" d="M51.279,17.8a24.861,24.861,0,0,0-3.753-6.043A25.39,25.39,0,1,0,12.471,48.013a24.564,24.564,0,0,0,6.005,3.434,25.128,25.128,0,0,0,9.514,1.877A25.446,25.446,0,0,0,53.381,27.9a25.128,25.128,0,0,0-2.1-10.1ZM27.972,7.61a20.1,20.1,0,0,1,8.482,1.877h0a8.237,8.237,0,0,1-2.027.582,10.753,10.753,0,0,0-9.1,9.1,5.63,5.63,0,0,1-5.086,4.973,10.753,10.753,0,0,0-9.1,9.1A5.461,5.461,0,0,1,9.656,36.51h0A20.267,20.267,0,0,1,27.991,7.573ZM12.452,41.032c.225-.206.45-.394.676-.619a10.283,10.283,0,0,0,3.04-6.061A5.479,5.479,0,0,1,17.8,30.936a5.311,5.311,0,0,1,3.4-1.614,10.753,10.753,0,0,0,9.1-9.1,5.48,5.48,0,0,1,1.633-3.584,5.386,5.386,0,0,1,3.434-1.558A10.284,10.284,0,0,0,41,12.4a19.722,19.722,0,0,1,4.429,5.217,1.618,1.618,0,0,1-.244.263,5.385,5.385,0,0,1-3.4,1.651,10.715,10.715,0,0,0-9.1,9.1,5.63,5.63,0,0,1-5.048,5.029,10.809,10.809,0,0,0-9.158,9.1,5.893,5.893,0,0,1-.92,2.571,20.437,20.437,0,0,1-5.1-4.3Zm15.519,7.244a20.344,20.344,0,0,1-5.63-.788,10.845,10.845,0,0,0,1.2-3.753,5.63,5.63,0,0,1,5.029-5.029,10.753,10.753,0,0,0,9.12-9.1,5.63,5.63,0,0,1,5.029-5.029,10.715,10.715,0,0,0,4.8-1.877A20.3,20.3,0,0,1,27.972,48.182Z" transform="translate(0 0)" fill="#394149"/>
  </g>
</svg>
